<svg width="236" height="54" viewBox="0 0 236 54" fill="none" xmlns="http://www.w3.org/2000/svg">
<path d="M16.155 42.225C12.885 42.225 10.305 41.805 8.415 40.965C6.525 40.095 5.175 38.79 4.365 37.05C3.555 35.31 3.15 33.12 3.15 30.48V9.825H10.35V30.48C10.35 32.76 10.875 34.32 11.925 35.16C13.005 35.97 14.82 36.375 17.37 36.375H26.055C28.605 36.375 30.405 35.97 31.455 35.16C32.535 34.32 33.075 32.76 33.075 30.48V9.825H40.275V30.48C40.275 33.12 39.87 35.31 39.06 37.05C38.25 38.79 36.9 40.095 35.01 40.965C33.12 41.805 30.54 42.225 27.27 42.225H16.155ZM45.218 31.47V26.295H58.988V31.47H45.218ZM75.1314 42.225C71.1114 42.225 67.9764 41.235 65.7264 39.255C63.4764 37.245 62.3514 34.305 62.3514 30.435C62.3514 26.535 63.4764 23.595 65.7264 21.615C67.9764 19.605 71.1114 18.6 75.1314 18.6H90.2064V23.775H75.1314C73.1814 23.775 71.6814 24.315 70.6314 25.395C69.6114 26.475 69.1014 28.155 69.1014 30.435C69.1014 32.685 69.6114 34.35 70.6314 35.43C71.6814 36.51 73.1814 37.05 75.1314 37.05H90.6564V42.225H75.1314ZM100.178 42C97.7481 42 95.8881 41.385 94.5981 40.155C93.3081 38.925 92.6631 37.17 92.6631 34.89C92.6631 32.64 93.3081 30.9 94.5981 29.67C95.8881 28.44 97.7481 27.825 100.178 27.825H117.458V26.745C117.458 24.915 116.558 24 114.758 24H95.6781V18.825H116.468C119.198 18.825 121.133 19.455 122.273 20.715C123.413 21.945 123.983 23.685 123.983 25.935V42H100.178ZM101.348 36.825H117.458V33H101.348C100.778 33 100.328 33.18 99.9981 33.54C99.6981 33.87 99.5481 34.32 99.5481 34.89C99.5481 35.46 99.6981 35.925 99.9981 36.285C100.328 36.645 100.778 36.825 101.348 36.825ZM128.95 42V18.825H146.68C149.29 18.825 151.21 19.485 152.44 20.805C153.67 22.095 154.285 23.805 154.285 25.935V30.75H147.67V26.745C147.67 24.945 146.77 24.045 144.97 24.045H135.565V42H128.95ZM169.926 42C167.316 42 165.396 41.355 164.166 40.065C162.936 38.745 162.321 37.02 162.321 34.89V24H155.616V18.825H162.321V11.715H168.846V18.825H178.476V24H168.846V34.08C168.846 35.91 169.746 36.825 171.546 36.825H179.736V42H169.926Z" fill="#2E7D32"/>
<path d="M219.07 43.0371C219.07 45.5078 217.484 47.4902 215.508 47.4902C213.531 47.4902 211.93 45.5078 211.93 43.0371C211.93 40.5664 213.539 38.5645 215.508 38.5645C217.492 38.5645 219.07 40.5664 219.07 43.0371ZM199.234 38.5645C197.258 38.5645 195.672 40.5762 195.672 43.0371C195.672 45.498 197.258 47.4902 199.234 47.4902C201.211 47.4902 202.812 45.5078 202.812 43.0371C202.812 40.5664 201.211 38.5645 199.234 38.5645ZM222.023 12.1973C198.414 12.1973 192.398 10.9473 186 2.50977C188.688 7.55859 190.164 17.0508 215.148 16.5918C241.188 16.1035 225.305 25 220.68 35.0391C235.266 18.7598 245.633 12.1973 222.023 12.1973Z" fill="#F2B700"/>
</svg>
