<svg width="50" height="25" viewBox="0 0 50 25" fill="none" xmlns="http://www.w3.org/2000/svg">
<g clip-path="url(#clip0_36_41)">
<path d="M35.4421 6.74727C36.8166 6.74727 37.8788 7.21773 38.6911 8.15866C39.5033 9.09947 39.8781 10.354 39.8781 11.9221V19.4491H38.1287V17.7244H38.0662C37.3165 19.1357 36.2543 19.8414 35.0047 19.8414C33.9425 19.8414 33.0053 19.4492 32.2556 18.6653C31.5683 17.8812 31.1309 16.7835 31.1309 15.6074C31.1309 14.3529 31.5059 13.3335 32.2556 12.5495C33.0053 11.7654 34.0675 11.4518 35.3171 11.4518C36.4417 11.4518 37.3165 11.6871 38.0037 12.2359V11.6871C38.0037 10.9552 37.786 10.2235 37.3506 9.74665L37.2539 9.64849C36.7541 9.0996 36.1293 8.78599 35.4421 8.78599C34.3799 8.78599 33.5677 9.33489 33.0053 10.4326L31.3809 9.17778C32.3805 7.53121 33.6926 6.74727 35.4421 6.74727ZM26.6323 1.41553C27.7534 1.41553 28.8188 1.90511 29.6707 2.8181L29.8188 2.98354C30.6936 3.92447 31.1309 5.33587 31.1309 6.82558C31.1309 8.31528 30.6936 9.64825 29.8188 10.6675C28.944 11.6868 27.8819 12.2356 26.6323 12.2356L23.6333 12.1572V19.4491H21.7588V1.41553H26.6323ZM35.6919 13.3334C34.9422 13.3334 34.3174 13.5686 33.8176 14.0391C33.3177 14.4311 33.0678 14.9799 33.0678 15.6855C33.0678 16.3128 33.3178 16.8616 33.6926 17.1753C34.13 17.5674 34.6298 17.8025 35.1297 17.8025C35.8294 17.8025 36.5292 17.461 37.0766 16.8418L37.1915 16.7049C37.8163 15.9992 38.1287 15.1367 38.1287 14.1958C37.5664 13.647 36.7541 13.3333 35.692 13.3333M26.7574 3.61075H23.6334V9.88366H26.7574C27.4446 9.88366 28.1319 9.57006 28.5693 8.94286C29.5689 7.76675 29.5689 5.80658 28.6318 4.63036L28.5693 4.55192C28.0694 3.92472 27.4446 3.53268 26.7573 3.61112M50 7.1393L43.8145 24.9377H41.94L44.2518 18.7436L40.1905 7.21773H42.1899L45.1265 16.0777H45.189L48.0631 7.21773H50V7.1393Z" fill="#5F6368"/>
<path d="M16.198 10.5891C16.198 9.88344 16.1355 9.17781 16.073 8.47217H8.26318V12.4709H12.6992C12.5118 13.7254 11.9495 14.9015 11.0748 15.6072V18.1946H13.7614C15.3234 16.3913 16.1981 13.7254 16.1981 10.5892" fill="#4285F4"/>
<path d="M8.26304 20.7038C10.5123 20.7038 12.3867 19.7629 13.7613 18.1947L11.0747 15.6073C10.3249 16.2346 9.38765 16.6266 8.26304 16.6266C6.13862 16.6266 4.26421 14.8233 3.6394 12.3142H0.890381V14.98C2.32739 18.5083 5.13901 20.7038 8.26304 20.7038Z" fill="#34A853"/>
<path d="M3.63967 12.314C3.26487 11.0595 3.26487 9.64819 3.63967 8.31522V5.64941H0.890649C-0.296558 8.55052 -0.296558 12.0004 0.890649 14.9798L3.63967 12.314Z" fill="#FBBC04"/>
<path d="M8.26313 4.08141C9.45024 4.08141 10.5749 4.63031 11.4497 5.64955L13.8239 2.67014C12.3243 0.94514 10.325 -0.0741004 8.32554 0.00420839C5.20151 0.00420839 2.32749 2.19967 0.952881 5.72798L3.702 8.39379C4.26431 5.88472 6.13872 4.08141 8.26313 4.08141Z" fill="#EA4335"/>
</g>
<defs>
<clipPath id="clip0_36_41">
<rect width="50" height="25" fill="white"/>
</clipPath>
</defs>
</svg>
