<svg width="50" height="25" viewBox="0 0 50 25" fill="none" xmlns="http://www.w3.org/2000/svg">
<g clip-path="url(#clip0_36_40)">
<path d="M9.08982 24.8758V23.2211C9.08982 22.5867 8.48943 22.1731 7.46033 22.1731C6.94587 22.1731 6.38845 22.2834 6.00251 22.642C5.70251 22.3386 5.2738 22.1731 4.63064 22.1731C4.20173 22.1731 3.77322 22.2558 3.43005 22.5592V22.2283H2.52966V24.8758H3.43005V23.4141C3.43005 22.9454 3.81599 22.7246 4.41638 22.7246C5.01638 22.7246 5.31677 22.9729 5.31677 23.4141V24.8758H6.21716V23.4141C6.21716 22.9454 6.64568 22.7246 7.2031 22.7246C7.80349 22.7246 8.10349 22.9729 8.10349 23.4141V24.8758H9.08982ZM22.424 22.2283H20.9664V21.4285H20.066V22.2283H19.2513V22.7522H20.0658V23.9657C20.0658 24.5725 20.4517 24.9309 21.4808 24.9309C21.8668 24.9309 22.2953 24.8483 22.5957 24.738L22.3383 24.2415C22.081 24.3518 21.781 24.3794 21.5666 24.3794C21.1379 24.3794 20.9664 24.214 20.9664 23.9381V22.7522H22.424V22.2283ZM30.056 22.173C29.5416 22.173 29.1986 22.3386 28.9842 22.5592V22.2283H28.0838V24.8758H28.9842V23.3866C28.9842 22.9454 29.2842 22.6971 29.8416 22.6971C30.0131 22.6971 30.2275 22.7248 30.399 22.7523L30.6562 22.2008C30.4847 22.1731 30.2275 22.1731 30.056 22.1731M18.5224 22.449C18.0935 22.2559 17.4933 22.1733 16.8502 22.1733C15.8213 22.1733 15.1353 22.5042 15.1353 23.0282C15.1353 23.4695 15.6498 23.7176 16.5502 23.8004L16.9789 23.828C17.4506 23.8831 17.7078 23.9658 17.7078 24.1038C17.7078 24.2968 17.3648 24.4347 16.7644 24.4347C16.1642 24.4347 15.6926 24.2968 15.3924 24.1589L14.9636 24.6001C15.4353 24.8207 16.0785 24.931 16.7215 24.931C17.922 24.931 18.6082 24.5726 18.6082 24.0761C18.6082 23.6073 18.0508 23.3591 17.1931 23.2764L16.7644 23.2488C16.3785 23.2211 16.0785 23.1661 16.0785 23.0006C16.0785 22.8076 16.3785 22.6973 16.8502 22.6973C17.3648 22.6973 17.8793 22.8351 18.1365 22.9179L18.5224 22.449ZM42.4472 22.1733C41.9326 22.1733 41.5896 22.3387 41.3752 22.5593V22.2284H40.4748V24.8759H41.3752V23.3867C41.3752 22.9455 41.6754 22.6973 42.2326 22.6973C42.4043 22.6973 42.6187 22.7249 42.7902 22.7524L43.0474 22.2009C42.876 22.1733 42.6187 22.1733 42.4472 22.1733ZM30.9564 23.5522C30.9564 24.3519 31.8138 24.931 33.1431 24.931C33.7433 24.931 34.172 24.8484 34.6008 24.6278L34.172 24.1589C33.8291 24.3244 33.4861 24.4071 33.1002 24.4071C32.3713 24.4071 31.8568 24.0762 31.8568 23.5522C31.8568 23.0558 32.3713 22.7248 33.1002 22.6973C33.4861 22.6973 33.8291 22.7799 34.172 22.9455L34.6008 22.4767C34.172 22.2559 33.7433 22.1733 33.1431 22.1733C31.8138 22.1733 30.9564 22.7524 30.9564 23.5522ZM39.2744 23.5522V22.2284H38.374V22.5593C38.0738 22.3112 37.6451 22.1733 37.0877 22.1733C35.9301 22.1733 35.0297 22.7524 35.0297 23.5522C35.0297 24.3519 35.9301 24.931 37.0877 24.931C37.6879 24.931 38.1168 24.7932 38.374 24.545V24.8759H39.2744V23.5522ZM35.9728 23.5522C35.9728 23.0833 36.4445 22.6973 37.2162 22.6973C37.9451 22.6973 38.4597 23.0558 38.4597 23.5522C38.4597 24.021 37.9451 24.4071 37.2162 24.4071C36.4445 24.3794 35.9728 24.021 35.9728 23.5522ZM25.2111 22.1733C24.0105 22.1733 23.1529 22.7248 23.1529 23.5522C23.1529 24.3795 24.0103 24.931 25.2539 24.931C25.8541 24.931 26.4545 24.8207 26.9261 24.5726L26.4972 24.1589C26.1543 24.3244 25.7256 24.4347 25.2969 24.4347C24.7394 24.4347 24.182 24.2692 24.0533 23.8003H27.0976V23.5798C27.1406 22.7248 26.3689 22.1733 25.2111 22.1733ZM25.2109 22.6696C25.7681 22.6696 26.1543 22.8903 26.2398 23.304H24.0961C24.1818 22.9455 24.5678 22.6696 25.2109 22.6696ZM47.5492 23.5522V21.1804H46.6488V22.5593C46.3486 22.3112 45.9199 22.1733 45.3625 22.1733C44.2049 22.1733 43.3045 22.7524 43.3045 23.5522C43.3045 24.3519 44.2049 24.931 45.3625 24.931C45.9629 24.931 46.3916 24.7932 46.6488 24.545V24.8759H47.5492V23.5522ZM44.2478 23.5522C44.2478 23.0833 44.7193 22.6973 45.4912 22.6973C46.2201 22.6973 46.7345 23.0558 46.7345 23.5522C46.7345 24.021 46.2201 24.4071 45.4912 24.4071C44.7193 24.3794 44.2478 24.021 44.2478 23.5522ZM14.1488 23.5522V22.2284H13.2484V22.5593C12.9482 22.3112 12.5195 22.1733 11.9621 22.1733C10.8045 22.1733 9.90408 22.7524 9.90408 23.5522C9.90408 24.3519 10.8045 24.931 11.9621 24.931C12.5625 24.931 12.9912 24.7932 13.2484 24.545V24.8759H14.1488V23.5522ZM10.8045 23.5522C10.8045 23.0833 11.2761 22.6973 12.0478 22.6973C12.7767 22.6973 13.2914 23.0558 13.2914 23.5522C13.2914 24.021 12.7767 24.4071 12.0478 24.4071C11.2761 24.3794 10.8045 24.021 10.8045 23.5522Z" fill="black"/>
<path d="M18.2223 2.12354H31.7281V17.733H18.2223V2.12354Z" fill="#FF5F00"/>
<path d="M19.0799 9.92827C19.0799 6.75678 21.3951 3.94372 24.9537 2.12349C22.3385 0.799749 19.0371 0 15.4355 0C6.90293 0 0 4.44008 0 9.92827C0 15.4163 6.90293 19.8565 15.4354 19.8565C19.0369 19.8565 22.3383 19.0568 24.9537 17.7329C21.3951 15.9403 19.0799 13.0997 19.0799 9.92827Z" fill="#EB001B"/>
<path d="M49.9504 9.92827C49.9504 15.4163 43.0475 19.8565 34.5151 19.8565C30.9135 19.8565 27.6121 19.0568 24.9967 17.7329C28.5983 15.9128 30.8707 13.0997 30.8707 9.92827C30.8707 6.75678 28.5553 3.94372 24.9967 2.12349C27.6119 0.799749 30.9135 0 34.5151 0C43.0475 0 49.9504 4.46771 49.9504 9.92827Z" fill="#F79E1B"/>
</g>
<defs>
<clipPath id="clip0_36_40">
<rect width="50" height="25" fill="white"/>
</clipPath>
</defs>
</svg>
