<svg width="50" height="25" viewBox="0 0 50 25" fill="none" xmlns="http://www.w3.org/2000/svg">
<path d="M9.13587 3.22311C8.54994 4.06745 7.61224 4.73364 6.67464 4.63839C6.55745 3.49675 7.01644 2.28352 7.55364 1.5342C8.13958 0.666075 9.16517 0.0475683 9.99535 0C10.093 1.18933 9.71205 2.35487 9.13587 3.22311ZM9.98568 4.86445C8.62806 4.76932 7.46585 5.80393 6.82122 5.80393C6.16692 5.80393 5.1804 4.91202 4.10608 4.93581C2.7095 4.95959 1.41047 5.92285 0.697481 7.45717C-0.76756 10.5257 0.316621 15.069 1.73274 17.5666C2.42619 18.8035 3.25637 20.1593 4.35022 20.1118C5.38557 20.0642 5.79573 19.2912 7.04593 19.2912C8.30579 19.2912 8.66722 20.1118 9.76107 20.088C10.894 20.0642 11.607 18.8512 12.3004 17.6142C13.0914 16.2108 13.4138 14.843 13.4333 14.7716C13.4138 14.7478 11.2456 13.737 11.2261 10.6922C11.2066 8.14702 12.9353 6.93391 13.0134 6.86256C12.0367 5.1023 10.5131 4.91202 9.98568 4.86445ZM17.8285 1.41528V19.9573H20.1919V13.6181H23.4638C26.4524 13.6181 28.5523 11.1205 28.5523 7.50485C28.5523 3.8893 26.4915 1.4154 23.5419 1.4154L17.8285 1.41528ZM20.1919 3.84162H22.9169C24.9679 3.84162 26.1399 5.17365 26.1399 7.51663C26.1399 9.8596 24.9679 11.2036 22.9071 11.2036H20.1919V3.84162ZM32.8691 20.0999C34.3537 20.0999 35.7307 19.1842 36.3558 17.7331H36.4047V19.9572H38.5925V10.7278C38.5925 8.05189 36.8345 6.3273 34.129 6.3273C31.6189 6.3273 29.7632 8.07567 29.6949 10.4781H31.8241C31.9999 9.33635 32.869 8.58703 34.0606 8.58703C35.5061 8.58703 36.3168 9.4077 36.3168 10.9182V11.941L33.3672 12.155C30.6227 12.3572 29.1382 13.725 29.1382 16.1038C29.1382 18.5062 30.6716 20.0999 32.8691 20.0999ZM33.5039 17.8996C32.2441 17.8996 31.4431 17.1623 31.4431 16.0323C31.4431 14.8669 32.2147 14.1889 33.6895 14.0819L36.3168 13.8797V14.9262C36.3168 16.6627 35.1057 17.8996 33.504 17.8996M41.5128 25C43.8178 25 44.9018 23.9297 45.8492 20.6827L50 6.50568H47.5974L44.8139 17.4595H44.765L41.9815 6.50568H39.5105L43.5148 20.0047L43.3 20.8254C42.9387 22.2169 42.3526 22.7522 41.3076 22.7522C41.1221 22.7522 40.7607 22.7284 40.6141 22.7046V24.9286C40.7509 24.9762 41.3368 25 41.5127 25" fill="black"/>
</svg>
