<svg width="50" height="25" viewBox="0 0 50 25" fill="none" xmlns="http://www.w3.org/2000/svg">
<g clip-path="url(#clip0_36_39)">
<path d="M25.8588 7.96014C25.8303 11.4288 27.8633 13.3644 29.3947 14.5153C30.9682 15.696 31.4967 16.4532 31.4904 17.5092C31.4787 19.1252 30.2354 19.8385 29.0719 19.8662C27.042 19.9147 25.8617 19.021 24.9234 18.3451L24.1922 23.6219C25.1336 24.2909 26.8768 24.8743 28.6844 24.8999C32.9275 24.8999 35.7035 21.6698 35.7186 16.6616C35.7352 10.3056 30.0178 9.95382 30.0568 7.11285C30.0703 6.25141 30.6033 5.33213 31.7713 5.0984C32.3494 4.98032 33.9453 4.88996 35.7547 6.1749L36.4648 1.06948C35.4918 0.523095 34.2412 -9.83558e-05 32.6842 -9.83558e-05C28.6904 -9.83558e-05 25.8814 3.274 25.8588 7.96014ZM43.2887 0.43966C42.5139 0.43966 41.8609 1.13665 41.5695 2.20623L35.5084 24.5249H39.7484L40.5922 20.9288H45.7734L46.2629 24.5249H50L46.7389 0.43966H43.2887ZM43.8818 6.94599L45.1055 15.9903H41.7543L43.8818 6.94599ZM20.718 0.439961L17.3758 24.5246H21.4162L24.7568 0.439359L20.718 0.439961ZM14.7408 0.439961L10.5354 16.833L8.83418 2.89418C8.63457 1.33816 7.84629 0.43966 6.9709 0.43966H0.0962891L0 1.13906C1.41133 1.61135 3.01484 2.37309 3.98633 3.18815C4.58086 3.68605 4.75039 4.12129 4.9457 5.30442L8.16777 24.5249H12.4375L18.9836 0.43966L14.7408 0.439961Z" fill="url(#paint0_linear_36_39)"/>
</g>
<defs>
<linearGradient id="paint0_linear_36_39" x1="2298.7" y1="74.8493" x2="2409.73" y2="-2479.62" gradientUnits="userSpaceOnUse">
<stop stop-color="#222357"/>
<stop offset="1" stop-color="#254AA5"/>
</linearGradient>
<clipPath id="clip0_36_39">
<rect width="50" height="25" fill="white"/>
</clipPath>
</defs>
</svg>
