<svg width="40" height="40" viewBox="0 0 40 40" fill="none" xmlns="http://www.w3.org/2000/svg">
<path d="M23.3333 20V33.1333C23.4 33.6333 23.2333 34.1667 22.85 34.5167C22.6958 34.6712 22.5126 34.7937 22.311 34.8774C22.1094 34.961 21.8933 35.0041 21.675 35.0041C21.4567 35.0041 21.2406 34.961 21.0389 34.8774C20.8373 34.7937 20.6542 34.6712 20.5 34.5167L17.15 31.1667C16.9682 30.989 16.83 30.7716 16.7461 30.5317C16.6623 30.2917 16.6351 30.0356 16.6666 29.7833V20H16.6166L7.01664 7.7C6.74599 7.35255 6.62386 6.9121 6.67695 6.47488C6.73004 6.03767 6.95403 5.63924 7.29997 5.36667C7.61664 5.13333 7.96664 5 8.33331 5H31.6666C32.0333 5 32.3833 5.13333 32.7 5.36667C33.0459 5.63924 33.2699 6.03767 33.323 6.47488C33.3761 6.9121 33.254 7.35255 32.9833 7.7L23.3833 20H23.3333Z" fill="black"/>
</svg>
