<svg width="35" height="35" viewBox="0 0 35 35" fill="none" xmlns="http://www.w3.org/2000/svg">
<path fill-rule="evenodd" clip-rule="evenodd" d="M21.875 27.7084C21.8753 28.4442 21.5973 29.1529 21.097 29.6925C20.5967 30.232 19.9109 30.5625 19.1771 30.6177L18.9584 30.625H16.0417C15.3058 30.6253 14.5971 30.3473 14.0576 29.847C13.518 29.3467 13.1875 28.6609 13.1323 27.9271L13.125 27.7084H21.875ZM17.5 2.91669C20.1469 2.91664 22.6903 3.94466 24.5937 5.78388C26.4971 7.6231 27.6118 10.1297 27.7025 12.775L27.7084 13.125V18.6142L30.3654 23.9284C30.4814 24.1602 30.5394 24.4168 30.5346 24.676C30.5297 24.9352 30.4621 25.1893 30.3375 25.4167C30.2129 25.6441 30.0351 25.8378 29.8193 25.9814C29.6034 26.1251 29.356 26.2142 29.0981 26.2413L28.9304 26.25H6.06961C5.81026 26.2501 5.55477 26.1873 5.32501 26.067C5.09526 25.9467 4.8981 25.7725 4.75042 25.5593C4.60275 25.3461 4.50897 25.1003 4.47711 24.8429C4.44526 24.5855 4.47628 24.3242 4.56752 24.0815L4.63461 23.9284L7.29169 18.6142V13.125C7.29169 10.4176 8.36721 7.82107 10.2816 5.90664C12.1961 3.9922 14.7926 2.91669 17.5 2.91669ZM17.5 5.83335C15.621 5.83346 13.8146 6.55894 12.4574 7.85848C11.1003 9.15803 10.2972 10.9313 10.2156 12.8086L10.2084 13.125V18.6142C10.2084 18.9759 10.1411 19.3344 10.01 19.6715L9.90065 19.9194L8.1944 23.3334H26.8071L25.1009 19.9179C24.939 19.5946 24.8386 19.244 24.8048 18.884L24.7917 18.6142V13.125C24.7917 11.1912 24.0235 9.33649 22.656 7.96903C21.2886 6.60158 19.4339 5.83335 17.5 5.83335Z" fill="#008938"/>
</svg>
