<svg width="40" height="40" viewBox="0 0 40 40" fill="none" xmlns="http://www.w3.org/2000/svg">
<path d="M21.7132 3.33325C23.5882 3.33825 24.5399 3.34825 25.3616 3.37159L25.6849 3.38325C26.0582 3.39659 26.4266 3.41325 26.8716 3.43325C28.6449 3.51659 29.8549 3.79659 30.9166 4.20825C32.0166 4.63159 32.9432 5.20492 33.8699 6.12992C34.7174 6.96308 35.3732 7.9709 35.7916 9.08325C36.2032 10.1449 36.4832 11.3549 36.5666 13.1299C36.5866 13.5733 36.6032 13.9416 36.6166 14.3166L36.6266 14.6399C36.6516 15.4599 36.6616 16.4116 36.6649 18.2866L36.6666 19.5299V21.7133C36.6707 22.9289 36.6579 24.1446 36.6282 25.3599L36.6182 25.6833C36.6049 26.0583 36.5882 26.4266 36.5682 26.8699C36.4849 28.6449 36.2016 29.8533 35.7916 30.9166C35.3744 32.0295 34.7184 33.0376 33.8699 33.8699C33.0365 34.7171 32.0288 35.3728 30.9166 35.7916C29.8549 36.2033 28.6449 36.4833 26.8716 36.5666C26.4761 36.5852 26.0805 36.6019 25.6849 36.6166L25.3616 36.6266C24.5399 36.6499 23.5882 36.6616 21.7132 36.6649L20.4699 36.6666H18.2882C17.072 36.6708 15.8558 36.658 14.6399 36.6282L14.3166 36.6183C13.9209 36.6033 13.5254 36.586 13.1299 36.5666C11.3566 36.4833 10.1466 36.2033 9.08324 35.7916C7.97102 35.3739 6.9636 34.718 6.13157 33.8699C5.28331 33.0371 4.62694 32.0292 4.20824 30.9166C3.79657 29.8549 3.51657 28.6449 3.43324 26.8699C3.41467 26.4744 3.398 26.0789 3.38324 25.6833L3.3749 25.3599C3.34419 24.1446 3.3303 22.9289 3.33324 21.7133V18.2866C3.32859 17.0709 3.34081 15.8552 3.3699 14.6399L3.38157 14.3166C3.3949 13.9416 3.41157 13.5733 3.43157 13.1299C3.5149 11.3549 3.7949 10.1466 4.20657 9.08325C4.62509 7.96976 5.28277 6.96162 6.13324 6.12992C6.96506 5.28238 7.97181 4.62656 9.08324 4.20825C10.1466 3.79659 11.3549 3.51659 13.1299 3.43325C13.5732 3.41325 13.9432 3.39659 14.3166 3.38325L14.6399 3.37325C15.8552 3.34364 17.0709 3.33086 18.2866 3.33492L21.7132 3.33325ZM19.9999 11.6666C17.7898 11.6666 15.6702 12.5446 14.1073 14.1074C12.5445 15.6702 11.6666 17.7898 11.6666 19.9999C11.6666 22.2101 12.5445 24.3297 14.1073 25.8925C15.6702 27.4553 17.7898 28.3333 19.9999 28.3333C22.21 28.3333 24.3297 27.4553 25.8925 25.8925C27.4553 24.3297 28.3332 22.2101 28.3332 19.9999C28.3332 17.7898 27.4553 15.6702 25.8925 14.1074C24.3297 12.5446 22.21 11.6666 19.9999 11.6666ZM19.9999 14.9999C20.6565 14.9998 21.3067 15.129 21.9134 15.3802C22.5201 15.6314 23.0713 15.9996 23.5357 16.4638C24.0001 16.928 24.3684 17.4791 24.6198 18.0857C24.8712 18.6923 25.0006 19.3425 25.0007 19.9991C25.0008 20.6557 24.8716 21.3059 24.6205 21.9126C24.3693 22.5192 24.0011 23.0705 23.5369 23.5349C23.0726 23.9992 22.5215 24.3676 21.9149 24.619C21.3083 24.8704 20.6582 24.9998 20.0016 24.9999C18.6755 24.9999 17.4037 24.4731 16.466 23.5355C15.5284 22.5978 15.0016 21.326 15.0016 19.9999C15.0016 18.6738 15.5284 17.4021 16.466 16.4644C17.4037 15.5267 18.6755 14.9999 20.0016 14.9999M28.7516 9.16659C28.199 9.16659 27.6691 9.38608 27.2784 9.77678C26.8877 10.1675 26.6682 10.6974 26.6682 11.2499C26.6682 11.8025 26.8877 12.3324 27.2784 12.7231C27.6691 13.1138 28.199 13.3333 28.7516 13.3333C29.3041 13.3333 29.834 13.1138 30.2247 12.7231C30.6154 12.3324 30.8349 11.8025 30.8349 11.2499C30.8349 10.6974 30.6154 10.1675 30.2247 9.77678C29.834 9.38608 29.3041 9.16659 28.7516 9.16659Z" fill="#008938"/>
</svg>
