<svg width="35" height="35" viewBox="0 0 35 35" fill="none" xmlns="http://www.w3.org/2000/svg">
<path d="M26.2952 24.2331L32.5413 30.4777L30.4777 32.5413L24.2331 26.2952C21.9096 28.1578 19.0196 29.1709 16.0417 29.1667C8.79667 29.1667 2.91667 23.2867 2.91667 16.0417C2.91667 8.79669 8.79667 2.91669 16.0417 2.91669C23.2867 2.91669 29.1667 8.79669 29.1667 16.0417C29.1709 19.0196 28.1578 21.9096 26.2952 24.2331ZM23.3698 23.1511C25.2206 21.2478 26.2542 18.6965 26.25 16.0417C26.25 10.4023 21.681 5.83335 16.0417 5.83335C10.4023 5.83335 5.83334 10.4023 5.83334 16.0417C5.83334 21.6811 10.4023 26.25 16.0417 26.25C18.6965 26.2542 21.2478 25.2206 23.151 23.3698L23.3698 23.1511Z" fill="#008938"/>
</svg>
