<svg width="50" height="40" viewBox="0 0 50 40" fill="none" xmlns="http://www.w3.org/2000/svg">
<path d="M48.8969 6.26359C48.6101 5.05286 48.0506 3.94909 47.2741 3.0622C46.4977 2.17532 45.5314 1.53627 44.4715 1.2087C40.591 0 24.9748 0 24.9748 0C24.9748 0 9.35794 0.0366803 5.47805 1.24538C4.41819 1.57301 3.45195 2.21208 2.67555 3.09896C1.89916 3.98584 1.3397 5.08958 1.05289 6.30027C-0.120831 14.176 -0.576191 26.1761 1.085 33.7364C1.37181 34.9471 1.93127 36.0508 2.70766 36.9377C3.48406 37.8246 4.4503 38.4637 5.51016 38.7913C9.39036 40 25.0069 40 25.0069 40C25.0069 40 40.6234 40 44.5036 38.7913C45.5634 38.4637 46.5297 37.8246 47.3061 36.9377C48.0825 36.0508 48.6419 34.9471 48.9287 33.7364C50.1664 25.8498 50.548 13.8571 48.8966 6.26394" fill="#008938"/>
<path d="M20.0046 28.5714L32.9596 20.0001L20.0046 11.4285V28.5714Z" fill="white"/>
</svg>
